<svg width="24" height="24" viewBox="0 0 24 24" fill="none" xmlns="http://www.w3.org/2000/svg"><path d="M1.19922 7.79981C1.19922 6.14295 2.54236 4.7998 4.19922 4.7998H19.6335C21.2904 4.7998 22.6335 6.14295 22.6335 7.7998V16.4539C22.6335 18.1107 21.2904 19.4539 19.6335 19.4539H4.19922C2.54236 19.4539 1.19922 18.1107 1.19922 16.4539V7.79981Z" fill="#F4C243"/><mask id="mask0_4338_112208" style="mask-type:alpha" maskUnits="userSpaceOnUse" x="1" y="4" width="22" height="16"><path d="M1.19922 7.79981C1.19922 6.14295 2.54236 4.7998 4.19922 4.7998H19.6335C21.2904 4.7998 22.6335 6.14295 22.6335 7.7998V16.4539C22.6335 18.1107 21.2904 19.4539 19.6335 19.4539H4.19922C2.54236 19.4539 1.19922 18.1107 1.19922 16.4539V7.79981Z" fill="#F4C243"/></mask><g mask="url(#mask0_4338_112208)"><path d="M1.59434 29.3217C-1.05735 27.244 -1.47925 23.3909 0.659989 20.7886L9.5984 9.91535C10.7985 8.45547 13.0332 8.45547 14.2333 9.91536L23.1717 20.7886C25.311 23.3909 24.8891 27.244 22.2374 29.3217L15.6164 34.5094C13.4432 36.2122 10.3885 36.2122 8.21529 34.5094L1.59434 29.3217Z" fill="#F1A43A"/><path d="M1.59405 5.26277C-1.05764 3.18507 -1.47954 -0.667994 0.659698 -3.2703L7.28065 -11.3244C9.68086 -14.2442 14.1503 -14.2442 16.5505 -11.3244L23.1715 -3.27029C25.3107 -0.667989 24.8888 3.18507 22.2371 5.26278L13.7659 11.9003C12.6792 12.7517 11.1519 12.7517 10.0653 11.9003L1.59405 5.26277Z" fill="#F3D466"/></g></svg>
