<svg width="24" height="24" viewBox="0 0 24 24" fill="none" xmlns="http://www.w3.org/2000/svg"><path d="M3 1C3 0.447716 3.44772 0 4 0H13.5L21 7.5V23C21 23.5523 20.5523 24 20 24H4C3.44772 24 3 23.5523 3 23V1Z" fill="#1CBEE3"/><path d="M13.5 0L21 7.5H13.5V0Z" fill="#97DEF7"/><path d="M21 13.1094L13.5 7.49748H21V13.1094Z" fill="#2099B7"/><path d="M0.523438 15.7551C0.523438 14.8505 1.25677 14.1172 2.16137 14.1172H21.8282C22.7328 14.1172 23.4661 14.8505 23.4661 15.7551V22.3638C23.4661 23.2684 22.7328 24.0018 21.8282 24.0018H2.16137C1.25677 24.0018 0.523438 23.2684 0.523438 22.3638V15.7551Z" fill="#19252F"/><path d="M7.42396 21.9382H3.24268V16.1748H4.80314V20.7967H7.42396V21.9382Z" fill="white"/><path fill-rule="evenodd" clip-rule="evenodd" d="M13.2936 21.1651C12.8123 21.7375 12.1091 22.027 11.1841 22.027C10.2967 22.027 9.61237 21.7342 9.12355 21.1519C8.63849 20.5697 8.39784 19.8657 8.39784 19.0367C8.39784 18.1946 8.64226 17.4939 9.13483 16.9314C9.62741 16.3688 10.3268 16.0859 11.2368 16.0859C12.1542 16.0859 12.8499 16.3886 13.3161 16.9873C13.7824 17.5893 14.0193 18.2768 14.0193 19.0499C14.0193 19.8854 13.7786 20.5894 13.2936 21.1651ZM10.0147 19.0532C10.0147 17.8097 10.417 17.188 11.2255 17.188C12.0113 17.188 12.4024 17.813 12.4024 19.0597C12.4024 20.3032 12.0113 20.925 11.2255 20.925C10.417 20.925 10.0147 20.2999 10.0147 19.0532Z" fill="white"/><path d="M17.2267 20.4545C17.456 20.7671 17.7869 20.925 18.2156 20.925C18.4901 20.925 18.7383 20.846 18.9563 20.6881C19.1707 20.5302 19.2797 20.2769 19.2797 19.9315H18.0389V18.8558H20.7462V21.9382H20.043C19.9904 21.721 19.9189 21.5006 19.8249 21.2737C19.3549 21.7737 18.7533 22.027 18.0276 22.027C17.1703 22.027 16.501 21.7572 16.0234 21.221C15.5459 20.6815 15.3052 19.9874 15.3052 19.1354C15.3052 18.2176 15.5609 17.4807 16.0686 16.9215C16.5799 16.3656 17.2718 16.0859 18.1479 16.0859C18.8811 16.0859 19.4715 16.2669 19.9227 16.6287C20.3739 16.9873 20.6484 17.4676 20.7462 18.0663L19.2797 18.2341C19.1632 17.5367 18.7834 17.188 18.1479 17.188C17.7305 17.188 17.4109 17.3524 17.2004 17.6847C16.986 18.0137 16.877 18.4874 16.877 19.0992C16.877 19.6914 16.9935 20.142 17.2267 20.4545Z" fill="white"/><path fill-rule="evenodd" clip-rule="evenodd" d="M7.42396 21.9382H3.24268V16.1748H4.80314V20.7967H7.42396V21.9382ZM13.2936 21.1651C12.8123 21.7375 12.1091 22.027 11.1841 22.027C10.2967 22.027 9.61237 21.7342 9.12355 21.1519C8.63849 20.5697 8.39784 19.8657 8.39784 19.0367C8.39784 18.1946 8.64226 17.4939 9.13483 16.9314C9.62741 16.3688 10.3268 16.0859 11.2368 16.0859C12.1542 16.0859 12.8499 16.3886 13.3161 16.9873C13.7824 17.5893 14.0193 18.2768 14.0193 19.0499C14.0193 19.8854 13.7786 20.5894 13.2936 21.1651ZM17.2267 20.4545C17.456 20.7671 17.7869 20.925 18.2156 20.925C18.4901 20.925 18.7383 20.846 18.9563 20.6881C19.1707 20.5302 19.2797 20.2769 19.2797 19.9315H18.0389V18.8558H20.7462V21.9382H20.043C19.9904 21.721 19.9189 21.5006 19.8249 21.2737C19.3549 21.7737 18.7533 22.027 18.0276 22.027C17.1703 22.027 16.501 21.7572 16.0234 21.221C15.5459 20.6815 15.3052 19.9874 15.3052 19.1354C15.3052 18.2176 15.5609 17.4807 16.0686 16.9215C16.5799 16.3656 17.2718 16.0859 18.1479 16.0859C18.8811 16.0859 19.4715 16.2669 19.9227 16.6287C20.3739 16.9873 20.6484 17.4676 20.7462 18.0663L19.2797 18.2341C19.1632 17.5367 18.7834 17.188 18.1479 17.188C17.7305 17.188 17.4109 17.3524 17.2004 17.6847C16.986 18.0137 16.877 18.4874 16.877 19.0992C16.877 19.6914 16.9935 20.142 17.2267 20.4545ZM10.0147 19.0532C10.0147 17.8097 10.417 17.188 11.2255 17.188C12.0113 17.188 12.4024 17.813 12.4024 19.0597C12.4024 20.3032 12.0113 20.925 11.2255 20.925C10.417 20.925 10.0147 20.2999 10.0147 19.0532Z" fill="white"/></svg>
