<svg width="24" height="24" viewBox="0 0 24 24" fill="none" xmlns="http://www.w3.org/2000/svg"><g clip-path="url(#clip0_4338_112416)"><path d="M11.2067 10.2187C10.212 11.8909 9.25897 13.5102 8.28612 15.1172C8.03629 15.5298 7.91267 15.8658 8.11228 16.3903C8.66329 17.8391 7.88598 19.249 6.42495 19.6317C5.04713 19.9928 3.70472 19.0872 3.43134 17.6121C3.18911 16.3064 4.20236 15.0264 5.64189 14.8224C5.76254 14.8051 5.88561 14.8031 6.08837 14.7879C6.79377 13.6051 7.51641 12.3935 8.27815 11.1159C6.9009 9.74648 6.08114 8.14552 6.26259 6.16183C6.39084 4.75955 6.94223 3.5478 7.9501 2.55457C9.88041 0.652615 12.8253 0.344581 15.0981 1.8045C17.281 3.20678 18.2807 5.93831 17.4285 8.27618C16.786 8.10196 16.139 7.92626 15.4276 7.73332C15.6953 6.43354 15.4973 5.26627 14.6207 4.26636C14.0415 3.60618 13.2983 3.26015 12.4531 3.13264C10.7589 2.87669 9.0955 3.96519 8.60194 5.62805C8.04166 7.51536 8.88959 9.05701 11.2067 10.2187Z" fill="#C73A63"/><path d="M14.0475 8.24142C14.7483 9.47764 15.4598 10.7326 16.165 11.976C19.7295 10.8732 22.4169 12.8464 23.381 14.9589C24.5455 17.5106 23.7495 20.5329 21.4624 22.1072C19.1149 23.7234 16.1461 23.4472 14.0662 21.3712C14.5963 20.9275 15.129 20.4818 15.6981 20.0057C17.7524 21.3362 19.5491 21.2736 20.883 19.698C22.0204 18.3539 21.9958 16.3498 20.8254 15.0339C19.4746 13.5154 17.6653 13.4691 15.4783 14.9268C14.5711 13.3173 13.6481 11.7206 12.7696 10.0994C12.4734 9.55307 12.1463 9.23614 11.4787 9.12049C10.3637 8.92718 9.64385 7.96972 9.60067 6.89697C9.55822 5.83609 10.1832 4.87714 11.1601 4.5035C12.1278 4.13338 13.2633 4.43214 13.9143 5.25486C14.4462 5.92709 14.6152 6.68365 14.3353 7.51267C14.2575 7.74379 14.1567 7.96749 14.0475 8.24142Z" fill="#4B4B4B"/><path d="M15.7224 18.3473H11.4314C11.0202 20.0389 10.1318 21.4047 8.60112 22.2732C7.41124 22.9482 6.1287 23.1771 4.76367 22.9567C2.25047 22.5514 0.195426 20.289 0.0145345 17.7413C-0.190266 14.8554 1.79342 12.2901 4.43747 11.7139C4.62003 12.3768 4.80445 13.0461 4.987 13.7074C2.5611 14.9451 1.72151 16.5045 2.40041 18.4545C2.99813 20.1705 4.69584 21.1111 6.53922 20.7473C8.42171 20.3759 9.37084 18.8114 9.255 16.3006C11.0396 16.3006 12.8257 16.2821 14.6106 16.3097C15.3074 16.3207 15.8455 16.2484 16.3706 15.634C17.235 14.623 18.8259 14.7141 19.7569 15.669C20.7082 16.6448 20.6626 18.215 19.6559 19.1497C18.6845 20.0515 17.1499 20.0034 16.2412 19.0316C16.0544 18.8313 15.9072 18.5935 15.7224 18.3473Z" fill="#4A4A4A"/></g><defs><clipPath id="clip0_4338_112416"><rect width="24" height="24" fill="white"/></clipPath></defs></svg>
