<svg width="20" height="21" viewBox="0 0 20 21" fill="none" xmlns="http://www.w3.org/2000/svg">
<path fill-rule="evenodd" clip-rule="evenodd" d="M1.78589 2.07961L1.2654 2.60009C0.97794 2.88755 0.97794 3.35361 1.2654 3.64107L2.4998 4.87548V11.364C2.4998 14.2612 4.79147 16.9695 9.3748 19.489C11.2717 18.4462 12.7761 17.3711 13.888 16.2637L15.8391 18.2147C16.1265 18.5022 16.5926 18.5022 16.88 18.2147L17.4005 17.6942C17.688 17.4068 17.688 16.9407 17.4005 16.6533L2.82686 2.07961C2.5394 1.79215 2.07334 1.79215 1.78589 2.07961ZM12.565 14.9407L4.3748 6.75048V11.364C4.3748 13.2676 5.95354 15.2812 9.3748 17.3283C10.7161 16.5257 11.7742 15.7283 12.565 14.9407ZM14.3748 11.364C14.3748 11.5852 14.3535 11.8079 14.3104 12.032L15.8084 13.5299C16.1027 12.8201 16.2498 12.0981 16.2498 11.364V4.48901C16.2498 3.79866 15.6902 3.23901 14.9998 3.23901H5.51748L7.39248 5.11401H14.3748V11.364Z" fill="#BDC7D1"/>
</svg>
