<svg width="18" height="19" viewBox="0 0 18 19" fill="none" xmlns="http://www.w3.org/2000/svg">
<path d="M14.7228 3.7958C15.0445 3.7958 15.3053 3.53502 15.3053 3.21333C15.3053 2.89164 15.0445 2.63086 14.7228 2.63086C14.4012 2.63086 14.1404 2.89164 14.1404 3.21333C14.1404 3.53502 14.4012 3.7958 14.7228 3.7958Z" fill="#00EDCD"/>
<path opacity="0.75" d="M2.42864 13.2234L11.5123 4.13976C11.526 4.12601 11.5385 4.10476 11.551 4.08351C11.6473 3.91849 11.6573 3.76097 11.6423 3.55219C11.616 3.19839 11.6998 3.00712 11.8711 2.8796C12.0973 2.70958 12.8812 2.74459 14.3476 4.21102C15.8141 5.67746 15.8478 6.46005 15.6778 6.68633C15.5503 6.8576 15.359 6.94012 15.0052 6.91511C14.7964 6.90011 14.6389 6.90886 14.4739 7.00637C14.4514 7.01888 14.4314 7.03138 14.4176 7.04513L5.334 16.1288C4.08635 17.3764 2.89495 17.1864 2.1386 16.4301C2.13735 16.4288 2.13485 16.4263 2.1336 16.4251C2.13235 16.4238 2.12985 16.4213 2.1286 16.4201C1.36976 15.6625 1.17973 14.4711 2.42864 13.2234Z" fill="#81D4FA"/>
<path opacity="0.39" d="M13.475 4.73864C12.68 3.94368 12.075 3.54495 11.6388 3.36621C11.6363 3.42246 11.6363 3.48495 11.6413 3.55245C11.6525 3.70119 11.6488 3.82369 11.6125 3.94118C12.0088 4.15492 12.505 4.5099 13.1137 5.07987C13.9887 5.89983 14.4062 6.51855 14.5799 6.95477C14.6949 6.91228 14.8124 6.90478 14.9524 6.91103C14.8686 6.47355 14.4999 5.76234 13.475 4.73864Z" fill="#1D44B3"/>
<path d="M7.76937 7.90057L2.45871 13.205C1.16355 14.4989 1.32732 15.7091 2.07991 16.4616C2.8325 17.213 4.04016 17.3805 5.33782 16.0828L13.7514 7.7168L7.76937 7.90057Z" fill="#00BFA5"/>
<path d="M6.6332 12.0892C6.9825 12.0892 7.26567 11.806 7.26567 11.4567C7.26567 11.1074 6.9825 10.8242 6.6332 10.8242C6.2839 10.8242 6.00073 11.1074 6.00073 11.4567C6.00073 11.806 6.2839 12.0892 6.6332 12.0892Z" fill="#00937A"/>
<path d="M13.0737 7.06152C13.4023 7.06152 13.6687 6.79514 13.6687 6.46655C13.6687 6.13796 13.4023 5.87158 13.0737 5.87158C12.7451 5.87158 12.4788 6.13796 12.4788 6.46655C12.4788 6.79514 12.7451 7.06152 13.0737 7.06152Z" fill="#00BFA5"/>
<path opacity="0.69" d="M10.1599 9.36527C10.3622 9.36527 10.5262 9.20131 10.5262 8.99904C10.5262 8.79678 10.3622 8.63281 10.1599 8.63281C9.95767 8.63281 9.7937 8.79678 9.7937 8.99904C9.7937 9.20131 9.95767 9.36527 10.1599 9.36527Z" fill="white"/>
<path d="M16.2317 3.60839C16.3815 3.60839 16.5029 3.48695 16.5029 3.33715C16.5029 3.18735 16.3815 3.06592 16.2317 3.06592C16.0819 3.06592 15.9604 3.18735 15.9604 3.33715C15.9604 3.48695 16.0819 3.60839 16.2317 3.60839Z" fill="#00BFA5"/>
<path d="M8.3945 11.4042C8.67063 11.4042 8.89448 11.1804 8.89448 10.9043C8.89448 10.6281 8.67063 10.4043 8.3945 10.4043C8.11838 10.4043 7.89453 10.6281 7.89453 10.9043C7.89453 11.1804 8.11838 11.4042 8.3945 11.4042Z" fill="#00EDCD"/>
<path d="M8.96959 9.66916C9.0759 9.66916 9.16208 9.58298 9.16208 9.47667C9.16208 9.37036 9.0759 9.28418 8.96959 9.28418C8.86328 9.28418 8.7771 9.37036 8.7771 9.47667C8.7771 9.58298 8.86328 9.66916 8.96959 9.66916Z" fill="#00EDCD"/>
<path d="M13.7539 7.70651C13.6489 7.79901 13.3076 7.86026 12.41 8.00025C11.9337 8.07525 11.3511 8.15024 10.6823 8.20524C8.58575 8.37898 7.17182 8.09274 8.01068 7.75026C8.68451 7.47528 11.0773 7.53527 12.575 7.58277C13.2976 7.60652 13.8364 7.63527 13.7539 7.70651Z" fill="#00EDCD"/>
<g opacity="0.6">
<path opacity="0.6" d="M2.45348 14.7751C2.23846 14.6863 2.32597 14.4401 2.45348 14.3113L10.892 5.64895C11.4046 5.11888 11.8734 4.75884 12.1359 5.00887C12.4297 5.28765 12.336 5.78772 11.1846 6.82035L3.09856 14.4676C3.03481 14.5313 2.66851 14.8639 2.45348 14.7751Z" fill="white"/>
</g>
<path opacity="0.6" fill-rule="evenodd" clip-rule="evenodd" d="M12.4313 3.52588C12.5101 3.40437 12.6724 3.3697 12.7939 3.44843C13.2153 3.72144 13.5984 4.05214 13.9293 4.42758C14.025 4.53622 14.0145 4.70188 13.9059 4.7976C13.7972 4.89333 13.6316 4.88286 13.5358 4.77422C13.2367 4.4347 12.8899 4.13543 12.5088 3.88846C12.3873 3.80973 12.3526 3.6474 12.4313 3.52588Z" fill="white"/>
</svg>
