<svg width="18" height="19" viewBox="0 0 18 19" fill="none" xmlns="http://www.w3.org/2000/svg">
<path d="M9.11462 12.3578L8.04342 12.8228L7.03223 14.9664C7.03223 14.9664 7.92218 16.9375 7.96218 16.9375C8.00218 16.9375 8.5084 16.9775 8.5084 16.9775L10.3083 14.9652L10.7633 11.5278L9.11462 12.3578Z" fill="#A02422"/>
<path d="M8.06223 13.9439C8.06223 13.9439 8.65845 13.8227 9.08343 13.6202C9.50841 13.4177 10.0334 13.1152 10.0334 13.1152L9.84089 14.7939L7.95974 16.935C7.95974 16.935 7.88599 16.8438 7.57351 16.1638C7.32477 15.6214 7.23853 15.4276 7.23853 15.4276L8.06223 13.9439Z" fill="#CA2C31"/>
<path d="M1.47119 10.3054L3.51358 8.29298L6.9909 7.67676L6.64717 9.49666L1.94617 10.9416L1.64243 10.8103L1.47119 10.3054Z" fill="#CA2C31"/>
<path d="M3.86729 8.80951L1.6499 10.8244L3.28107 11.6194L5.75719 10.3557V9.75946L6.26341 8.39453L3.86729 8.80951Z" fill="#A02422"/>
<path d="M4.94726 11.4216C4.94726 11.4216 4.2298 11.3616 3.44359 12.3553C2.72613 13.2627 2.3899 14.7402 2.2599 15.1202C2.12991 15.5001 1.81868 15.5776 1.92242 15.7514C2.02617 15.9251 2.47489 15.9151 3.02861 15.8464C3.58233 15.7776 4.05731 15.6039 4.05731 15.6039C4.05731 15.6039 4.03356 15.6639 3.95356 15.7939C3.92481 15.8401 3.82482 15.9064 3.83232 15.9751C3.84982 16.1388 5.25224 16.1426 6.37219 14.9902C7.58212 13.7465 6.99465 12.7265 6.99465 12.7265L4.94726 11.4216Z" fill="#F7D74D"/>
<path d="M5.16345 12.0005C5.16345 12.0005 4.38975 12.0417 3.74978 13.0354C3.10981 14.0291 2.81233 15.1803 2.87358 15.2578C2.93357 15.3353 4.12601 14.9041 4.41224 14.9903C4.60848 15.0503 4.50724 15.2491 4.55974 15.3016C4.60348 15.3453 5.12096 15.4191 5.95841 14.5116C6.79712 13.6042 6.59838 12.3292 6.59838 12.3292L5.16345 12.0005Z" fill="#FBF0B4"/>
<path d="M5.54344 10.644C5.54344 10.644 5.15471 10.9903 5.01597 11.189C4.87722 11.3878 4.87722 11.4053 4.88597 11.4652C4.89472 11.5252 5.03846 12.184 5.63718 12.7614C6.37214 13.4701 7.02836 13.5651 7.12335 13.5651C7.21835 13.5651 7.84957 12.8564 7.84957 12.8564L5.54344 10.644Z" fill="#858585"/>
<path d="M7.26221 12.744C7.26221 12.744 7.89217 13.1577 8.94837 12.8028C10.392 12.3178 11.4507 11.2328 12.7619 9.86292C14.0268 8.54049 15.088 6.89932 15.088 6.89932L14.3443 4.4082L7.26221 12.744Z" fill="#437687"/>
<path d="M13.1257 13.2556C13.2769 13.3393 13.4669 13.2918 13.5369 13.1306C13.6007 12.9868 13.4832 12.8156 13.3769 12.7693C13.2707 12.7231 13.0844 12.7843 13.017 12.9056C12.9507 13.0256 13.0345 13.2056 13.1257 13.2556Z" fill="white"/>
<path d="M9.49829 11.3803L9.67203 10.8403L10.107 10.9016C10.107 10.9016 10.4382 11.0578 10.682 11.1716C10.9257 11.2853 11.2394 11.3716 11.2394 11.3716L10.6207 11.894C10.6207 11.894 10.2833 11.7665 10.037 11.659C9.75953 11.5378 9.49829 11.3803 9.49829 11.3803Z" fill="#3F545F"/>
<path d="M11.5394 3.35693C11.5394 3.35693 10.337 4.0544 8.61333 5.68556C7.05966 7.15548 5.90847 8.48541 5.62974 9.61661C5.39725 10.5641 5.52099 11.139 6.04971 11.7602C6.60843 12.4177 7.2634 12.7439 7.2634 12.7439C7.2634 12.7439 7.75587 12.7514 9.81076 11.1703C12.3744 9.19663 14.428 5.8918 14.428 5.8918L11.5394 3.35693Z" fill="#8DAFBF"/>
<path d="M5.97609 10.0468C6.13858 10.2018 6.38482 10.0393 6.54606 9.65937C6.70855 9.27939 6.70605 9.0669 6.58106 8.97691C6.42607 8.86441 6.16608 9.11065 6.05234 9.32939C5.92734 9.57187 5.8536 9.92936 5.97609 10.0468Z" fill="#B3E1EE"/>
<path d="M9.52084 11.389C9.52084 11.389 8.61714 10.9278 8.04217 10.2716C6.95472 9.03288 6.72974 7.67295 6.72974 7.67295L7.27596 7.03174C7.27596 7.03174 7.4122 8.47666 8.57839 9.72535C9.33835 10.5391 10.1321 10.9115 10.1321 10.9115C10.1321 10.9115 9.97332 11.0453 9.80332 11.1753C9.69458 11.259 9.52084 11.389 9.52084 11.389Z" fill="#6896A5"/>
<path d="M7.24976 10.9505C7.24976 10.9505 8.02347 10.1656 8.10847 10.2506C8.19346 10.3356 8.18221 10.8118 7.81223 11.3418C7.441 11.8717 6.6248 12.8154 5.97858 13.4517C5.34111 14.0779 4.44241 14.7941 4.35742 14.7816C4.29117 14.7716 4.02243 14.6378 3.91494 14.5079C3.80994 14.3791 4.12368 13.7704 4.24992 13.5692C4.37741 13.3679 7.24976 10.9505 7.24976 10.9505Z" fill="#A02524"/>
<path d="M3.65359 14.0701C3.64359 14.2501 3.91857 14.5126 3.91857 14.5126L8.10835 10.2516C8.10835 10.2516 7.91211 10.0303 7.33464 10.3891C6.75217 10.7515 6.2422 11.1865 5.48974 11.9152C4.44104 12.9327 3.66359 13.8901 3.65359 14.0701Z" fill="#CA2C31"/>
<path d="M15.273 9.56936C15.1867 9.43562 15.0005 9.39187 14.8792 9.49936C14.7618 9.60436 14.7905 9.76935 14.8567 9.85309C14.923 9.93684 15.1005 9.96809 15.208 9.89934C15.3155 9.8306 15.3255 9.64935 15.273 9.56936Z" fill="white"/>
<path d="M14.0219 6.56933C14.0219 6.56933 12.9757 6.12311 12.2295 5.08191C11.4883 4.04821 11.547 3.3495 11.547 3.3495C11.547 3.3495 12.167 2.86328 13.5606 2.30706C14.4981 1.93333 15.7743 1.74209 16.1943 2.05332C16.6142 2.36455 15.9068 3.92572 15.9068 3.92572L14.6181 6.42059L14.0219 6.56933Z" fill="#D83F22"/>
<path d="M11.6182 3.85596C11.6182 3.85596 10.667 4.53967 9.65209 5.46962C8.72089 6.32333 8.10342 6.99079 8.01843 7.14578C7.92843 7.31203 7.92718 7.54701 7.99718 7.66701C8.06718 7.787 8.22217 7.8495 8.36341 7.7445C8.50465 7.63826 9.51085 6.52582 10.4196 5.73086C11.2508 5.0034 11.892 4.54217 11.892 4.54217C11.892 4.54217 12.152 4.0822 12.1095 3.9772C12.067 3.87096 11.6182 3.85596 11.6182 3.85596Z" fill="#B3E1EE"/>
<path d="M12.1983 6.24573C11.5021 5.60451 10.5334 5.777 10.0559 6.34697C9.5659 6.93444 9.60215 7.83189 10.1809 8.37186C10.7071 8.86184 11.6858 8.97308 12.2758 8.28562C12.8007 7.67565 12.7682 6.76945 12.1983 6.24573Z" fill="#E1E1E1"/>
<path d="M10.4158 6.57337C10.0021 6.9796 10.0246 7.78456 10.517 8.15204C10.947 8.47327 11.557 8.45702 11.9395 8.06579C12.3219 7.67456 12.3219 6.96335 11.9632 6.59587C11.5507 6.17464 10.8895 6.1084 10.4158 6.57337Z" fill="#3F545F"/>
<path d="M3.3825 5.95833C3.24376 6.09708 3.23751 6.31956 3.3925 6.44706C3.52999 6.5608 3.75373 6.48706 3.83748 6.38456C3.92122 6.28207 3.91122 6.05958 3.79998 5.94958C3.68873 5.83834 3.46749 5.87459 3.3825 5.95833Z" fill="white"/>
<path opacity="0.5" d="M6.12719 5.7957C6.0222 5.91195 6.05594 6.08444 6.15344 6.14819C6.25093 6.21193 6.39718 6.20568 6.46842 6.11819C6.53217 6.03944 6.53967 5.88195 6.44217 5.78445C6.35718 5.70071 6.19469 5.72071 6.12719 5.7957Z" fill="white"/>
<path d="M15.0879 6.89947C15.0879 6.89947 15.6304 6.24576 16.1441 4.77209C16.8616 2.71719 16.2366 2.09473 16.2366 2.09473C16.2366 2.09473 16.0254 3.07218 15.2917 4.43085C14.7029 5.51955 13.9905 6.55574 13.9905 6.55574C13.9905 6.55574 14.383 6.73198 14.5954 6.79323C14.8629 6.87073 15.0879 6.89947 15.0879 6.89947Z" fill="#A02422"/>
<path d="M11.6182 3.85609C11.6182 3.85609 12.3206 3.31737 13.0856 2.93864C13.7968 2.58615 14.5043 2.29242 14.6318 2.54741C14.753 2.78989 13.9605 3.11988 13.2631 3.56485C12.5656 4.00983 11.8944 4.54105 11.8944 4.54105C11.8944 4.54105 11.7919 4.35356 11.7257 4.17982C11.6519 3.99108 11.6182 3.85609 11.6182 3.85609Z" fill="#ED6A65"/>
<path d="M7.94341 2.82576C7.94341 2.82576 8.0959 2.39078 8.1859 2.38578C8.27715 2.38078 8.40839 2.82076 8.40839 2.82076C8.40839 2.82076 8.85961 2.82576 8.88961 2.89201C8.92836 2.977 8.60088 3.26199 8.60088 3.26199C8.60088 3.26199 8.70712 3.68697 8.65712 3.73821C8.60088 3.79446 8.21215 3.57072 8.21215 3.57072C8.21215 3.57072 7.81217 3.84946 7.72592 3.77321C7.65093 3.70696 7.80717 3.25699 7.80717 3.25699C7.80717 3.25699 7.43219 2.98325 7.45219 2.90701C7.48094 2.79951 7.94341 2.82576 7.94341 2.82576Z" fill="white"/>
</svg>
