<svg width="18" height="19" viewBox="0 0 18 19" fill="none" xmlns="http://www.w3.org/2000/svg">
<path d="M14.2539 17.0476H5.52279C5.31527 17.0476 5.36527 16.8788 5.36527 16.6713V3.59212C5.36527 3.38459 5.53405 3.21582 5.74157 3.21582H14.4127C14.7527 3.21582 15.029 3.49211 15.029 3.83215V16.3037C15.029 16.7863 14.8002 17.0476 14.2539 17.0476Z" fill="#689F38"/>
<path d="M3.31616 16.2298C3.31616 16.4723 3.69996 16.676 3.94249 16.676L13.9925 16.6698C14.365 16.6698 14.5601 16.4723 14.5601 16.2298L14.5288 13.5649H3.31616V16.2298Z" fill="#94C6D6"/>
<path d="M13.685 15.0725C13.685 15.0725 13.4188 15.8038 13.6888 16.1701C14.0025 16.5952 14.55 16.4927 14.55 16.2939V3.89108C14.55 3.80857 14.4738 3.74856 14.3938 3.76606C14.22 3.80357 13.9075 3.80482 13.4926 3.52979L13.685 15.0725Z" fill="#F5F5F5"/>
<path d="M12.7709 15.6937H3.95483V2.64209C3.95483 2.64209 12.7047 2.64209 12.9872 2.64209C13.271 2.64209 13.471 2.71835 13.5648 2.84462C13.6873 3.00839 13.7523 3.25717 13.7523 3.5297V14.7124C13.7523 15.2537 13.3135 15.6937 12.7709 15.6937Z" fill="#689F38"/>
<path d="M12.502 15.3101H4.19219C3.84714 15.3101 3.56836 15.0301 3.56836 14.6863V3.26738C3.56836 2.92234 3.84839 2.64355 4.19219 2.64355H12.502C12.9795 2.64355 13.3671 2.91609 13.3671 3.50866V14.4463C13.3658 14.9226 12.9795 15.3101 12.502 15.3101Z" fill="#9CCC65"/>
<path d="M5.30357 15.5562C5.30357 15.5562 5.29732 2.82709 5.29732 2.64332H3.89739C3.89739 2.64332 3.60866 2.59331 3.41617 2.64332C3.06744 2.73458 2.97119 2.98836 2.97119 3.40216V15.2049C2.97119 16.0425 3.02244 16.405 3.27618 16.6701C3.26118 16.4776 3.38492 15.8162 3.48616 15.635C3.57616 15.4749 5.30357 15.5562 5.30357 15.5562Z" fill="#616161"/>
<path fill-rule="evenodd" clip-rule="evenodd" d="M3.77246 15.6937V2.64209H4.02245V15.6937H3.77246Z" fill="#424242"/>
<path fill-rule="evenodd" clip-rule="evenodd" d="M3.88298 15.3448L5.2937 15.3174L5.301 15.6923L3.88675 15.7198H3.88492C3.72968 15.7198 3.62991 15.7974 3.56822 15.9141C3.50196 16.0395 3.48697 16.2016 3.51805 16.3254L3.51812 16.3257C3.5546 16.472 3.64545 16.556 3.74499 16.6074C3.85026 16.6617 3.9557 16.6735 3.98367 16.6735H5.56477C5.56478 16.6735 5.56483 16.6735 5.56483 16.861C5.56483 17.0485 5.56483 17.0485 5.56482 17.0485H3.98367C3.90414 17.0485 3.73834 17.0259 3.573 16.9406C3.40193 16.8523 3.2228 16.6913 3.15428 16.4164C3.1017 16.2066 3.12549 15.9494 3.23667 15.7389C3.35224 15.5202 3.56805 15.3456 3.88298 15.3448Z" fill="#424242"/>
</svg>
