<svg width="18" height="19" viewBox="0 0 18 19" fill="none" xmlns="http://www.w3.org/2000/svg">
<path opacity="0.6" d="M6.95381 3.38867C9.43537 3.38867 11.3044 5.25766 11.3044 7.73922C11.3044 10.2208 9.28535 12.241 6.80379 12.241C4.32223 12.241 2.45325 10.3721 2.45325 7.89049C2.45325 5.40893 4.47225 3.38867 6.95381 3.38867Z" fill="#81D4FA"/>
<path d="M6.9537 3.38861C9.43527 3.38861 11.3042 5.2576 11.3042 7.73916C11.3042 10.2207 9.28525 12.241 6.80369 12.241C4.32213 12.241 2.45314 10.372 2.45314 7.89043C2.45314 5.40887 4.47214 3.38861 6.9537 3.38861ZM3.25199 3.90118C0.791684 6.36149 1.99934 9.95569 2.96071 10.9371C4.73968 12.7523 8.06509 13.7862 10.5529 11.2971C12.8569 8.99307 12.0293 6.07145 10.4066 4.28498C9.329 3.09983 5.71105 1.44212 3.25199 3.90118Z" fill="#616161"/>
<path d="M13.4727 13.1632L12.4315 14.2106L9.97914 11.7358C9.97914 11.7358 9.77165 11.337 10.1816 10.927C10.5916 10.5171 11.0203 10.6883 11.0203 10.6883L13.4727 13.1632Z" fill="#BDBDBD"/>
<path d="M12.0631 11.426C11.9219 11.3135 11.4318 11.051 10.893 11.586C10.3554 12.1211 10.5742 12.5437 10.6805 12.6999C10.6805 12.6999 14.4972 16.9342 14.671 17.1092C14.9272 17.3655 15.4536 17.1467 15.9411 16.6592C16.4287 16.1716 16.6637 15.7003 16.3887 15.4253C16.1649 15.2015 12.2044 11.5385 12.0631 11.426Z" fill="#616161"/>
<path d="M6.48986 2.88471C8.97142 2.88471 10.9904 4.90371 10.9904 7.38528C10.9904 9.86684 8.97142 11.8858 6.48986 11.8858C4.0083 11.8858 1.9893 9.86684 1.9893 7.38528C1.9893 4.90371 4.0083 2.88471 6.48986 2.88471ZM6.48986 2.38965C3.73201 2.38965 1.49548 4.62618 1.49548 7.38403C1.49548 10.1419 3.73201 12.3784 6.48986 12.3784C9.2477 12.3784 11.4842 10.1431 11.4842 7.38403C11.4842 4.62493 9.2477 2.38965 6.48986 2.38965Z" fill="#BDBDBD"/>
<path d="M15.9416 16.6594C16.3931 16.2079 16.6182 15.701 16.4445 15.5272C16.2707 15.3534 15.7638 15.5786 15.3123 16.0301C14.8608 16.4816 14.6356 16.9885 14.8094 17.1623C14.9832 17.3361 15.4901 17.1109 15.9416 16.6594Z" fill="#424242"/>
<path d="M4.31452 4.75497C3.49956 5.60868 3.17958 6.55363 3.17208 7.60358C3.16958 7.98981 3.22333 8.39853 3.46206 8.70102C3.7008 9.0035 4.17453 9.14725 4.48701 8.92101C4.6945 8.77102 4.78074 8.50978 4.88199 8.27604C5.03698 7.91731 5.25322 7.58358 5.51945 7.29609C5.85194 6.93611 6.25942 6.64863 6.5769 6.27615C6.89438 5.90366 7.12062 5.39994 6.99313 4.92622C6.86688 4.46249 6.40941 4.13501 5.93318 4.08126C5.45696 4.02751 4.78449 4.2625 4.31452 4.75497Z" fill="url(#paint0_linear_7833_49478)"/>
<g opacity="0.59">
<path opacity="0.59" d="M9.00623 11.2776C9.00623 11.2201 9.03372 11.1676 9.07997 11.1339C9.32371 10.9601 9.97992 10.5539 10.5461 9.47394C10.8749 8.84398 10.9999 8.319 11.0349 8.13151C11.1336 7.60154 11.4111 7.77903 11.3724 8.12151C11.3274 8.51149 10.9886 10.2277 9.28746 11.4188C9.16872 11.5026 9.00623 11.4226 9.00623 11.2776Z" fill="white"/>
</g>
<g opacity="0.59">
<path opacity="0.59" d="M4.29792 3.2285C4.28167 3.39099 4.00544 3.54473 3.95669 3.57598C3.7042 3.73847 3.07924 4.0572 2.50802 5.13465C2.24178 5.63587 2.05054 6.1521 1.98555 6.40833C1.8793 6.82706 1.59307 6.74331 1.64806 6.40208C1.71056 6.0146 2.12929 4.31594 3.88294 3.20475C4.00669 3.12725 4.31917 3.01351 4.29792 3.2285Z" fill="white"/>
</g>
<path d="M7.98998 11.0464C7.43376 11.1477 7.26877 10.9152 7.33876 10.6839C7.39376 10.5002 7.59875 10.4214 7.78249 10.3664C8.76244 10.0727 9.5899 9.2615 10.1911 8.45654C10.2049 9.15526 10.0211 9.56024 9.68489 9.97521C9.35616 10.3789 8.84493 10.8902 7.98998 11.0464Z" fill="url(#paint1_linear_7833_49478)"/>
<defs>
<linearGradient id="paint0_linear_7833_49478" x1="3.54771" y1="4.05807" x2="5.59708" y2="7.38182" gradientUnits="userSpaceOnUse">
<stop offset="0.2853" stop-color="white"/>
<stop offset="1" stop-color="white" stop-opacity="0"/>
</linearGradient>
<linearGradient id="paint1_linear_7833_49478" x1="8.36889" y1="13.7436" x2="8.8856" y2="8.4043" gradientUnits="userSpaceOnUse">
<stop offset="0.2853" stop-color="white"/>
<stop offset="1" stop-color="white" stop-opacity="0"/>
</linearGradient>
</defs>
</svg>
