<svg width="18" height="19" viewBox="0 0 18 19" fill="none" xmlns="http://www.w3.org/2000/svg">
<path d="M16.3792 15.2781C15.8693 14.7631 15.2068 14.0931 14.5143 13.3957C14.4718 13.5569 14.3981 13.6944 14.2906 13.8031C13.4869 14.6068 11.0908 13.5544 8.62714 11.4158C8.31966 11.1495 6.53475 13.9506 6.86474 14.2744C7.27346 14.6743 10.1146 16.5067 11.087 16.8655C13.9194 17.9092 15.3743 16.893 15.8668 16.4167C16.1442 16.1455 16.313 15.7568 16.3792 15.2781Z" fill="url(#paint0_linear_7833_49518)"/>
<path d="M4.13118 5.28238C3.93869 4.68116 3.7712 3.89495 4.08118 3.59497C5.01989 2.68251 8.04223 4.20494 10.8621 7.02354C13.6807 9.84214 15.2168 12.8782 14.2906 13.8044C14.2819 13.8132 14.2706 13.8207 14.2619 13.8294C15.0281 14.5569 15.7868 15.2794 16.2743 15.7431C16.883 13.9394 15.4681 10.2296 12.337 6.99854C11.8283 6.47357 10.3221 4.92865 9.01842 4.05369C7.82599 3.25373 6.52356 2.51877 5.07113 2.34503C4.12493 2.23129 2.43127 2.47503 2.78125 3.81745C2.85 4.08244 3.06999 4.71991 3.79995 5.47987C3.94494 5.63111 4.19493 5.48237 4.13118 5.28238Z" fill="url(#paint1_linear_7833_49518)"/>
<path d="M7.99722 7.08217L7.90347 9.58204C7.89597 9.77328 7.99347 9.95452 8.15846 10.0533L10.2658 11.3169C10.4971 11.4732 10.4483 11.8282 10.1834 11.9157L7.84847 12.5069C7.65973 12.5544 7.51224 12.7031 7.46599 12.8919L6.85478 15.383C6.77728 15.6517 6.42605 15.7142 6.25981 15.4892L4.88238 13.4331C4.77614 13.2756 4.59365 13.1868 4.40366 13.2018L1.93629 13.3956C1.65755 13.4043 1.48881 13.0894 1.6513 12.8619L3.22622 10.8382C3.34621 10.6845 3.37121 10.477 3.29121 10.2995L2.30627 8.10336C2.21127 7.84088 2.45876 7.58214 2.72499 7.66714L5.02362 8.53584C5.20361 8.60334 5.40485 8.56834 5.55109 8.44335L7.45349 6.81843C7.67348 6.64719 7.99472 6.80343 7.99722 7.08217Z" fill="#FDD835"/>
<path d="M6.87355 9.23595L7.45602 7.64228C7.49102 7.55479 7.54351 7.40104 7.67975 7.46729C7.78725 7.51979 7.73725 7.77103 7.73725 7.77103L7.60601 9.21345C7.55476 9.76217 7.40602 9.88591 7.19353 9.89966C6.94979 9.91341 6.70606 9.69217 6.87355 9.23595Z" fill="#FFFF8D"/>
<path d="M7.736 12.2855L9.55216 11.8943C9.6434 11.8718 9.80339 11.8418 9.75715 11.6968C9.7209 11.5831 9.46466 11.5968 9.46466 11.5968L8.09348 11.4893C7.69225 11.4418 7.37852 11.5068 7.25103 11.7193C7.08104 12.0043 7.23603 12.3593 7.736 12.2855Z" fill="#F4B400"/>
<defs>
<linearGradient id="paint0_linear_7833_49518" x1="12.7155" y1="15.1499" x2="7.61233" y2="12.0313" gradientUnits="userSpaceOnUse">
<stop offset="0.0969" stop-color="#FFB300"/>
<stop offset="1" stop-color="#FFB300" stop-opacity="0"/>
</linearGradient>
<linearGradient id="paint1_linear_7833_49518" x1="15.4095" y1="12.1148" x2="2.85787" y2="1.92251" gradientUnits="userSpaceOnUse">
<stop stop-color="#FFB300"/>
<stop offset="0.7062" stop-color="#FDD835"/>
<stop offset="0.8408" stop-color="#FDDC36"/>
<stop offset="0.9842" stop-color="#FFE93A"/>
<stop offset="1" stop-color="#FFEB3B"/>
</linearGradient>
</defs>
</svg>
