<svg width="18" height="19" viewBox="0 0 18 19" fill="none" xmlns="http://www.w3.org/2000/svg">
<path d="M9.53453 2.41943L11.5148 6.56495L15.9316 2.57945L13.6738 8.28517L16.1329 7.62134L13.8013 10.9355L15.9303 11.6693L13.7551 12.7032L15.8716 16.3324L11.8473 13.8434L10.9847 16.5362L9.70705 13.6571L6.0816 16.3799L7.18423 13.2733L2.18736 14.2784L5.92783 11.4943L1.98608 8.65647L6.48165 9.04527L2.32488 2.67072L9.00071 7.04502L9.53453 2.41943Z" fill="#FFA000"/>
<path fill-rule="evenodd" clip-rule="evenodd" d="M9.42297 1.75098L11.5757 6.25763L16.4007 1.90378L13.9857 8.00697L16.5846 7.30538L14.0982 10.8397L16.4255 11.6419L14.0199 12.7852L16.4123 16.8876L11.9527 14.1293L11.0131 17.0626L9.63127 13.9488L5.69684 16.9037L6.89688 13.5226L1.40486 14.6273L5.61041 11.4971L1.32422 8.41122L6.11436 8.8255L1.67876 2.02336L8.8493 6.72181L9.42297 1.75098ZM9.64616 3.08834L9.15219 7.36867L2.97106 3.31852L6.84901 9.26548L2.64802 8.90216L6.24531 11.492L2.96993 13.93L7.47166 13.0244L6.46643 15.8566L9.7829 13.3659L10.9564 16.0102L11.742 13.5579L15.3309 15.7777L13.4903 12.6217L15.4353 11.6973L13.5045 11.0318L15.6812 7.93774L13.362 8.56381L15.4625 3.25558L11.4539 6.87272L9.64616 3.08834Z" fill="#F44336"/>
<path d="M10.0798 5.70264L11.2724 8.79177L13.6327 6.12769L11.8588 9.84566L14.0103 9.19933L12.0163 11.1808L13.6865 11.7296L12.0863 11.9659L13.3602 13.7711L11.2899 12.4485L10.8136 13.9887L10.0798 12.2272L8.24832 13.6224L9.00091 11.9134L6.12555 12.541L8.24456 11.2558L5.48047 9.92692L8.5421 10.212L6.02804 6.26771L9.88852 8.87804L10.0798 5.70264Z" fill="url(#paint0_radial_7833_49606)"/>
<path fill-rule="evenodd" clip-rule="evenodd" d="M9.98957 5.12158L11.3151 8.55494L14.1279 5.38016L12.0932 9.64453L14.4528 8.93569L12.2491 11.1255L14.2282 11.7759L12.3057 12.0597L13.8295 14.2191L11.3609 12.642L10.8311 14.3554L10.0267 12.4246L7.93864 14.0153L8.78747 12.0878L5.41937 12.8229L7.98254 11.2684L4.79883 9.73772L8.29945 10.0636L5.59848 5.82614L9.77694 8.65148L9.98957 5.12158ZM10.1701 6.28333L10.0002 9.10423L6.45766 6.70891L8.78482 10.3599L6.16217 10.1158L8.50665 11.2429L6.83179 12.2587L9.21441 11.7387L8.55805 13.2291L10.1329 12.0294L10.7963 13.6216L11.219 12.2546L12.891 13.3228L11.867 11.8718L13.1449 11.6831L11.7835 11.2357L13.5678 9.4626L11.6244 10.0464L13.1377 6.87485L11.2298 9.02824L10.1701 6.28333Z" fill="#FFEB3B"/>
<defs>
<radialGradient id="paint0_radial_7833_49606" cx="0" cy="0" r="1" gradientUnits="userSpaceOnUse" gradientTransform="translate(10.6995 10.8239) scale(3.29607 3.29608)">
<stop stop-color="#FFFDE7"/>
<stop offset="1" stop-color="#FFF176"/>
</radialGradient>
</defs>
</svg>
